<!DOCTYPE svg PUBLIC "-//W3C//DTD SVG 20010904//EN"
              "http://www.w3.org/TR/2001/REC-SVG-20010904/DTD/svg10.dtd">

<svg xmlns="http://www.w3.org/2000/svg"
     width="39.4284mm" height="39.4284mm"
     viewBox="0 0 149 149">
  <path id="Selection"
        fill="none" stroke="black" stroke-width="1"
        d="M 99.00,31.00
           C 99.02,24.73 99.03,18.29 106.00,16.00
             105.12,19.74 104.67,19.83 103.53,23.00
             98.57,36.73 117.37,26.65 121.69,34.15
             122.95,36.35 122.97,39.52 123.00,42.00
             123.00,42.00 123.00,65.00 123.00,65.00
             122.97,81.20 116.95,84.05 106.00,95.00
             106.00,95.00 85.00,116.00 85.00,116.00
             81.07,119.93 71.89,131.36 66.00,129.92
             62.45,129.06 57.63,123.63 55.00,121.00
             55.00,121.00 32.00,98.00 32.00,98.00
             28.95,94.93 23.01,89.84 24.10,85.00
             24.92,81.37 31.27,75.73 34.00,73.00
             34.00,73.00 61.00,46.00 61.00,46.00
             64.67,42.33 71.66,34.64 76.00,32.57
             80.96,30.21 93.10,31.00 99.00,31.00 Z
           M 105.00,42.00
           C 102.07,32.10 96.64,33.90 88.00,34.00
             75.29,34.15 72.44,39.56 64.00,48.00
             64.00,48.00 42.00,70.00 42.00,70.00
             38.69,73.31 26.55,83.31 28.17,88.00
             29.17,90.89 42.00,103.00 45.00,106.00
             45.00,106.00 61.00,121.98 61.00,121.98
             63.14,124.03 65.72,126.97 69.00,125.83
             71.76,124.88 81.34,114.66 84.00,112.00
             84.00,112.00 104.00,92.00 104.00,92.00
             113.80,82.20 118.98,80.35 119.00,66.00
             119.00,66.00 119.00,42.00 119.00,42.00
             118.99,39.86 119.29,36.64 117.43,35.17
             115.34,33.53 107.83,34.00 105.00,34.00
             105.00,34.00 108.45,44.00 108.45,44.00
             109.18,46.28 110.93,49.22 111.04,51.41
             111.14,53.67 110.05,56.12 108.57,57.78
             100.96,66.31 88.62,55.90 94.09,47.11
             95.12,45.45 96.31,44.45 98.04,43.57
             100.25,42.45 102.59,42.22 105.00,42.00 Z
           M 104.00,46.09
           C 102.51,45.92 101.64,45.67 100.11,46.09
             89.32,49.79 102.89,65.13 107.40,53.94
             108.03,52.40 107.94,50.63 108.00,49.00
             108.00,49.00 100.00,53.00 100.00,53.00
             100.00,53.00 104.00,46.09 104.00,46.09 Z
           M 62.00,72.00
           C 68.02,74.85 80.13,86.62 82.00,93.00
             75.62,91.13 63.85,79.02 61.00,73.00
             61.00,73.00 62.00,72.00 62.00,72.00 Z
           M 52.00,82.00
           C 58.68,83.96 68.88,95.25 73.00,100.93
             71.30,101.21 70.84,101.61 69.00,100.93
             64.11,98.89 53.49,87.08 52.00,82.00 Z" />
</svg>
